<svg xmlns="http://www.w3.org/2000/svg" viewBox="0 0 256 256" fill="none">
  <defs>
    <linearGradient id="bg" x1="40" y1="28" x2="206" y2="228" gradientUnits="userSpaceOnUse">
      <stop offset="0" stop-color="#87C7FF" />
      <stop offset="0.48" stop-color="#2B95FF" />
      <stop offset="1" stop-color="#005DFF" />
    </linearGradient>
    <linearGradient id="bubbleLight" x1="82" y1="88" x2="162" y2="160" gradientUnits="userSpaceOnUse">
      <stop offset="0" stop-color="#FFFFFF" />
      <stop offset="1" stop-color="#EAF4FF" />
    </linearGradient>
    <linearGradient id="bubbleBlue" x1="126" y1="92" x2="214" y2="188" gradientUnits="userSpaceOnUse">
      <stop offset="0" stop-color="#6CC2FF" />
      <stop offset="1" stop-color="#0B75FF" />
    </linearGradient>
    <filter id="glow" x="0" y="0" width="256" height="256" filterUnits="userSpaceOnUse" color-interpolation-filters="sRGB">
      <feFlood flood-opacity="0" result="BackgroundImageFix" />
      <feBlend in="SourceGraphic" in2="BackgroundImageFix" result="shape" />
      <feGaussianBlur stdDeviation="18" result="effect1_foregroundBlur_1_1" />
    </filter>
    <filter id="shadow" x="34" y="36" width="188" height="188" filterUnits="userSpaceOnUse" color-interpolation-filters="sRGB">
      <feFlood flood-opacity="0" result="BackgroundImageFix" />
      <feColorMatrix in="SourceAlpha" result="hardAlpha" values="0 0 0 0 0 0 0 0 0 0 0 0 0 0 0 0 0 0 127 0" />
      <feOffset dy="12" />
      <feGaussianBlur stdDeviation="14" />
      <feColorMatrix values="0 0 0 0 0.0235 0 0 0 0 0.235 0 0 0 0 0.631 0 0 0 0.22 0" />
      <feBlend in2="BackgroundImageFix" result="effect1_dropShadow_1_1" />
      <feBlend in="SourceGraphic" in2="effect1_dropShadow_1_1" result="shape" />
    </filter>
  </defs>

  <rect x="20" y="20" width="216" height="216" rx="56" fill="url(#bg)" />
  <g filter="url(#glow)">
    <circle cx="78" cy="70" r="34" fill="#DDF1FF" fill-opacity="0.9" />
    <circle cx="188" cy="190" r="32" fill="#89D0FF" fill-opacity="0.5" />
  </g>

  <g filter="url(#shadow)">
    <path
      d="M62 91c0-20.435 16.565-37 37-37h44c20.435 0 37 16.565 37 37v23c0 20.435-16.565 37-37 37h-12.857l-24.672 18.504c-4.23 3.172-10.328.154-10.328-5.133V151H99c-20.435 0-37-16.565-37-37V91Z"
      fill="url(#bubbleLight)"
    />
    <path
      d="M104 121c0-18.778 15.222-34 34-34h18c18.778 0 34 15.222 34 34v18c0 18.778-15.222 34-34 34h-6.631l-18.444 13.833c-3.611 2.708-8.925.132-8.925-4.381V173c-9.941-5.897-18-18.026-18-34v-18Z"
      fill="url(#bubbleBlue)"
    />
    <circle cx="104" cy="108" r="7" fill="#0B75FF" fill-opacity="0.18" />
    <circle cx="125" cy="108" r="7" fill="#0B75FF" fill-opacity="0.18" />
    <circle cx="146" cy="108" r="7" fill="#0B75FF" fill-opacity="0.18" />
    <circle cx="143" cy="130" r="6" fill="#FFFFFF" fill-opacity="0.88" />
    <circle cx="161" cy="130" r="6" fill="#FFFFFF" fill-opacity="0.88" />
    <circle cx="179" cy="130" r="6" fill="#FFFFFF" fill-opacity="0.88" />
  </g>
</svg>
